<svg height="502pt" viewBox="0 -107 502.624 502" width="502pt" xmlns="http://www.w3.org/2000/svg"><path d="m470.625 288.3125h-326.625l-144-144 144-144h326.625c17.679688 0 32 14.320312 32 32v224c0 17.679688-14.320312 32-32 32zm0 0" fill="#e76e54"/><g fill="#fff"><path d="m401.9375 64.3125c-6.242188-6.242188-16.386719-6.242188-22.625 0l-57.375 57.375-57.378906-57.375c-6.238282-6.242188-16.382813-6.242188-22.621094 0-6.242188 6.238281-6.242188 16.382812 0 22.625l57.375 57.375-57.375 57.375c-6.242188 6.242188-6.242188 16.382812 0 22.625 6.238281 6.238281 16.382812 6.238281 22.621094 0l57.378906-57.375 57.375 57.375c6.238281 6.238281 16.382812 6.238281 22.625 0 6.238281-6.242188 6.238281-16.382812 0-22.625l-57.378906-57.375 57.378906-57.375c6.253906-6.242188 6.253906-16.386719 0-22.625zm0 0"/><path d="m102.625 128.3125h32v32h-32zm0 0"/></g></svg>